<svg width="35" height="31" viewBox="0 0 35 31" fill="none" xmlns="http://www.w3.org/2000/svg">
<g clip-path="url(#clip0_179_206)">
<path d="M29.5207 4.44064C27.9289 3.02695 26.033 1.90622 23.9435 1.14383C21.8541 0.38143 19.6129 -0.00737063 17.3508 0.000105811C7.87233 0.000105811 0.147593 6.79263 0.138911 15.1315C0.138911 17.8023 0.933307 20.4006 2.43311 22.701L0 30.5455L9.1247 28.4416C11.6479 29.6524 14.4766 30.2859 17.3508 30.2839H17.3595C26.8402 30.2839 34.5627 23.4914 34.5714 15.1449C34.5734 13.1557 34.1279 11.1859 33.2607 9.34878C32.3935 7.51168 31.1239 5.84362 29.5207 4.44064ZM17.3508 27.7219C14.7879 27.7201 12.2724 27.1136 10.0667 25.9656L9.54577 25.6907L4.1326 26.9392L5.57814 22.2944L5.23954 21.8152C3.8066 19.8113 3.04876 17.4912 3.05387 15.1239C3.05387 8.20153 9.47198 2.55446 17.3595 2.55446C19.2386 2.5515 21.0997 2.87571 22.8357 3.50841C24.5716 4.14112 26.148 5.06979 27.4739 6.2409C28.8042 7.40764 29.8589 8.79438 30.5771 10.3212C31.2953 11.8481 31.6629 13.4849 31.6586 15.1372C31.65 22.0844 25.2318 27.7219 17.3508 27.7219ZM25.1971 18.3025C24.7695 18.1135 22.6576 17.199 22.2605 17.0692C21.8654 16.9451 21.5768 16.8802 21.2946 17.2582C21.0059 17.6343 20.1811 18.4915 19.9337 18.7378C19.6863 18.9917 19.4301 19.0203 19.0004 18.8332C18.5728 18.6423 17.1859 18.2452 15.545 16.9528C14.2644 15.9505 13.4071 14.7096 13.1509 14.3335C12.9035 13.9555 13.1271 13.7531 13.3419 13.5641C13.5308 13.3962 13.7695 13.1212 13.9844 12.9036C14.2015 12.686 14.2731 12.5256 14.4142 12.2736C14.5552 12.0178 14.488 11.8002 14.3816 11.6112C14.2731 11.4222 13.4157 9.55698 13.0533 8.8048C12.706 8.06217 12.3522 8.16526 12.0874 8.15571C11.84 8.14235 11.5513 8.14235 11.2626 8.14235C11.0447 8.14723 10.8302 8.19163 10.6326 8.27277C10.435 8.35391 10.2586 8.47004 10.1144 8.61389C9.71941 8.99189 8.61464 9.90634 8.61464 11.7715C8.61464 13.6367 10.1557 15.4293 10.3727 15.6832C10.5854 15.9371 13.3984 19.7534 17.7155 21.3952C18.7356 21.7866 19.5387 22.0176 20.1659 22.1932C21.1969 22.4834 22.1281 22.4395 22.8704 22.3459C23.6951 22.2352 25.412 21.4296 25.7745 20.5457C26.1304 19.6599 26.1304 18.9039 26.0219 18.7454C25.9155 18.585 25.6269 18.4915 25.1971 18.3025Z" fill="white"/>
</g>
<defs>
<clipPath id="clip0_179_206">
<rect width="34.5714" height="30.5455" fill="white"/>
</clipPath>
</defs>
</svg>
